<?xml version="1.0" encoding="UTF-8" standalone="no"?>
<!-- Created with Inkscape (http://www.inkscape.org/) -->

<svg
   xmlns:dc="http://purl.org/dc/elements/1.1/"
   xmlns:cc="http://creativecommons.org/ns#"
   xmlns:rdf="http://www.w3.org/1999/02/22-rdf-syntax-ns#"
   xmlns:svg="http://www.w3.org/2000/svg"
   xmlns="http://www.w3.org/2000/svg"
   xmlns:sodipodi="http://sodipodi.sourceforge.net/DTD/sodipodi-0.dtd"
   xmlns:inkscape="http://www.inkscape.org/namespaces/inkscape"
   id="svg3295"
   version="1.1"
   inkscape:version="0.48.2 r9819"
   width="673.39771"
   height="1026.6875"
   sodipodi:docname="darwin-silhouette.svg"
   inkscape:label="Head">
  <metadata
     id="metadata3301">
    <rdf:RDF>
      <cc:Work
         rdf:about="">
        <dc:format>image/svg+xml</dc:format>
        <dc:type
           rdf:resource="http://purl.org/dc/dcmitype/StillImage" />
        <dc:title />
      </cc:Work>
    </rdf:RDF>
  </metadata>
  <defs
     id="defs3299">
    <filter
       id="filter4490"
       inkscape:label="filter1"
       color-interpolation-filters="sRGB">
      <feConvolveMatrix
         order="5 5"
         kernelMatrix="0 0 0 0 0 0 0 0 0"
         id="feConvolveMatrix4492"
         targetX="4" />
    </filter>
    <filter
       id="filter4494"
       inkscape:label="Sharpen more"
       x="0"
       y="0"
       width="1"
       height="1"
       inkscape:menu="Image effects"
       inkscape:menu-tooltip="Sharpen edges and boundaries within the object, force=0.3"
       color-interpolation-filters="sRGB">
      <feConvolveMatrix
         id="feConvolveMatrix4496"
         targetY="1"
         targetX="1"
         in="SourceGraphic"
         divisor="1"
         kernelMatrix="0 -0.3 0 -0.3 2.2 -0.3 0 -0.3 0"
         order="3 3"
         result="result1" />
      <feBlend
         id="feBlend4498"
         in2="SourceGraphic"
         mode="normal"
         result="fbSourceGraphic" />
      <feColorMatrix
         result="fbSourceGraphicAlpha"
         in="fbSourceGraphic"
         values="0 0 0 -1 0 0 0 0 -1 0 0 0 0 -1 0 0 0 0 1 0"
         id="feColorMatrix4500" />
      <feConvolveMatrix
         id="feConvolveMatrix4502"
         targetY="1"
         targetX="1"
         in="fbSourceGraphic"
         divisor="1"
         kernelMatrix="0 -0.3 0 -0.3 2.2 -0.3 0 -0.3 0"
         order="3 3"
         result="result1" />
      <feBlend
         id="feBlend4504"
         in2="fbSourceGraphic"
         mode="normal"
         result="result2" />
    </filter>
  </defs>
  <sodipodi:namedview
     pagecolor="#ffffff"
     bordercolor="#666666"
     borderopacity="1"
     objecttolerance="10"
     gridtolerance="10"
     guidetolerance="10"
     inkscape:pageopacity="0"
     inkscape:pageshadow="2"
     inkscape:window-width="1885"
     inkscape:window-height="1036"
     id="namedview3297"
     showgrid="false"
     inkscape:snap-center="false"
     inkscape:snap-global="true"
     inkscape:zoom="0.6081983"
     inkscape:cx="180.61622"
     inkscape:cy="506.51559"
     inkscape:window-x="0"
     inkscape:window-y="0"
     inkscape:window-maximized="1"
     inkscape:current-layer="g3189"
     fit-margin-top="0"
     fit-margin-left="0"
     fit-margin-right="0"
     fit-margin-bottom="0" />
  <g
     style="display:inline"
     inkscape:label="Silouhette"
     id="g3189"
     inkscape:groupmode="layer"
     transform="translate(-12.096827,-8.0625)">
    <path
       style="fill:#4d4d4d;stroke:#000000;stroke-width:20;stroke-linecap:butt;stroke-linejoin:miter;stroke-miterlimit:4;stroke-opacity:1;stroke-dasharray:none"
       d="M 329.72855,23.829448 C 156.98774,122.32331 244.1348,221.95445 244.1348,221.95445 c 12.45272,15.56598 31.70942,15.74839 35.0625,15.65625 0.0192,2.12935 0.0502,4.1521 0.0625,6.125 l -13.875,4.625 -20.9375,-1.1875 c 0,0 -0.87166,2.04035 -2.90625,4.65625 -2.03459,2.61591 -1.4375,5.8125 -1.4375,5.8125 0,0 -4.94356,2.92475 -6.6875,5.25 -1.74394,2.32525 -3.1875,7.5625 -3.1875,7.5625 0,0 -10.17475,-1.17506 -12.5,-0.59375 -2.32525,0.58131 -35.75909,39.24363 -38.375,40.40625 -2.6159,1.16263 -6.98725,0.86643 -9.3125,22.375 -2.32525,21.50857 -1.4375,57.5625 -1.4375,57.5625 l -7.28125,8.71875 c 0,0 -2.01547,-0.58132 -3.46875,0 -1.45328,0.58131 -14.84375,26.4375 -14.84375,26.4375 0,0 -4.35525,-5.22272 -13.65625,2.625 -9.301,7.84772 -77.877408,72.37071 -84.562504,83.125 -6.685096,10.75428 -6.709031,11.34312 -9.90625,17.15625 -3.19722,5.81313 -3.199624,5.8079 -6.6875,19.46875 -3.487877,13.66084 -5.512437,31.09553 -6.09375,43.59375 -0.581312,12.49822 9.317935,15.38472 16.875,12.1875 7.557065,-3.19722 13.9375,-8.40625 13.9375,-8.40625 0,0 13.674435,9.59438 18.90625,3.78125 5.231814,-5.81312 2.59375,-8.15625 2.59375,-8.15625 l 0.59375,-4.65625 16.84375,-6.65625 c 0,0 5.52456,5.20631 9.593754,4.625 4.06919,-0.58131 33.42506,-25.8589 32.84375,-30.21875 -0.58131,-4.35985 -2.3125,-5.8125 -2.3125,-5.8125 0,0 -0.006,-9.00606 1.15625,-10.75 1.16263,-1.74394 12.78125,-13.65625 12.78125,-13.65625 0,0 27.34647,5.22512 31.125,4.0625 3.77853,-1.16263 8.41869,-6.40594 9,-9.3125 0.58131,-2.90657 0.5625,-7.5625 0.5625,-7.5625 l 10.1875,5.8125 9.3125,0.59375 c 0,0 12.48391,-7.25209 16.84375,-16.84375 4.35985,-9.59166 13.96875,-26.15625 13.96875,-26.15625 l 5.8125,17.71875 -2.65625,0.6875 -2,-0.0937 0.0312,0.59375 c -0.0143,-8e-4 -0.625,-0.0312 -0.625,-0.0312 l 0.125,0.1875 -0.40625,0.0937 2.59375,41.09375 0.59375,15 c 0,0 -10.74812,11.62636 -28.1875,56.96875 -17.43938,45.34239 -21.5,69.1875 -21.5,69.1875 l 0,7.28125 -18.625,0 c 0,0 -9.00512,38.36351 -19.46875,115.96875 -10.46363,77.60525 -11.90625,96.50209 -11.90625,106.09375 0,9.59166 2.90625,18.3125 2.90625,18.3125 l -5.21875,28.1875 -63.093754,-3.5 -1.75,2.625 -11.9062,-0.5938 c 0,0 -3.481188,6.98087 -4.0625,10.46875 -0.581313,3.48788 -0.59375,10.46875 -0.59375,10.46875 0,0 118.015994,43.5995 143.593754,48.25 25.57775,4.6505 17.71875,2.9062 17.71875,2.9062 l 61.625,2.3126 13.96875,-4.0626 c 0,0 2.02488,-7.2587 3.1875,-12.7812 1.16263,-5.5224 0.28125,-13.9687 0.28125,-13.9688 0,0 -13.07463,-5.79666 -16.5625,-7.24995 -3.48788,-1.45328 -37.21875,-1.75 -37.21875,-1.75 l 0.59375,-10.75 15.125,7.5625 40.6875,2.3125 11.90625,-13.0625 c 0,0 15.40625,-77.34041 15.40625,-79.375 0,-2.0346 -4.35284,-11.62468 -6.96875,-14.53125 -2.61591,-2.90656 -5.21875,-1.71875 -5.21875,-1.71875 l 6.65625,-42.15625 c 0,0 -8.1365,-12.20746 -17.4375,-29.9375 -9.301,-17.73004 -12.78125,-41.84375 -12.78125,-41.84375 0,0 4.66806,-6.68625 11.0625,-18.3125 6.39444,-11.62626 19.15625,-37.21875 19.15625,-37.21875 0,0 0.0124,-21.51756 0.59375,-32.5625 0.58131,-11.04494 9.875,-36.03125 9.875,-36.03125 l 15.40625,-2.90625 0.0937,-3.78125 12.125,-0.28125 c 0,0 -0.57828,9.59584 0.875,19.1875 1.45328,9.59166 14.25,73.52488 14.25,74.6875 0,1.16263 3.75,3.1875 3.75,3.1875 0,0 -15.37803,11.62981 -16.25,25 -0.87197,13.37019 93.28397,168.59344 97.0625,171.5 3.77853,2.90657 12.21875,4.34375 12.21875,4.34375 0,0 -0.87165,0.30916 -2.90625,2.34375 -2.03459,2.03459 14.25,41.5625 14.25,41.5625 l -16.2812,-0.59375 -22.6875,23.56255 c 0,0 0.86193,19.1623 6.09375,20.9062 5.23181,1.744 7.28125,6.125 7.28125,6.125 l 68,2.9062 22.40625,-5.8124 120.90625,-83.7188 c 0,0 4.92172,-3.19962 6.375,-6.6875 1.45328,-3.48787 -3.48391,-25.85284 -7.84375,-28.46875 -4.35985,-2.61591 -66.5625,-3.5 -66.5625,-3.5 l 22.96875,-16 6.125,0 5.5,-13.65625 -24.125,-74.96875 -11.03125,-11.34375 -27.625,-1.15625 -4.9375,-7.5625 c 0,0 -19.47021,3.7849 -34.875,-1.15625 -15.40479,-4.94116 -25.59375,-12.5 -25.59375,-12.5 l -1.4375,-69.1875 c 0,0 -7.85556,-8.43896 -14.25,-23.84375 -6.39444,-15.40479 -7.25,-36.90625 -7.25,-36.90625 l 38.0625,1.75 7.5625,-13.65625 -1.125,-15.46875 c 2.50102,7.35575 5.95051,16.09274 8.90625,18.59375 5.34365,4.52155 57.54585,13.1634 67,9.875 9.45416,-3.2884 14.3895,-25.5098 18.5,-35.375 4.1105,-9.86521 4.09375,-136.46875 4.09375,-136.46875 0,0 -0.007,-5.3222 -2.0625,-9.84375 -2.05525,-4.52156 -4.11305,-4.12745 -7.8125,-6.59375 -3.69945,-2.4663 -2.87744,-7.38225 -5.34375,-9.4375 -2.4663,-2.05525 -5.75,-3.28125 -5.75,-3.28125 l 0,-6.1875 -8.625,-7.8125 22.59375,-14.375 -1.21875,-13.15625 -37.8125,-32.46875 -11.09375,-0.8125 -2.875,-1.65625 0.8125,-2.46875 -30.84375,-25.5 c 0,0 0.005,-8.60834 -0.40625,-18.0625 -0.41105,-9.45415 -15.625,-5.75 -15.625,-5.75 0,0 0.82925,-23.0242 -3.28125,-31.65625 -4.1105,-8.63205 -15.1875,-5.75 -15.1875,-5.75 0,0 -13.1587,-27.5577 -15.625,-27.96875 -0.85614,-0.14269 -5.65062,-0.61144 -11.125,-1.125 l 0.71875,-0.9375 -19.6875,-0.78125 c -1.1974,-0.1067 -4.84375,-0.4375 -4.84375,-0.4375 l -0.28125,0.25 -59,-2.34375 c 2.71733,-1.99358 6.10743,-4.58979 11.125,-8.3125 36.89306,-27.37226 27.3125,-88.9375 27.3125,-88.9375 0,0 4.31281,-35.132012 4.65625,-43.031252 0.58131,-13.370192 -3.16488,-28.878256 -5.21875,-34.28125 -2.38598,-6.276646 -25,-30.8125 -25,-30.8125 0,0 -18.01787,9.868311 -26.15625,13.9375 -8.13837,4.069189 -20.34375,16.28125 -20.34375,16.28125 -24.99645,0 -24.4375,-0.59375 -24.4375,-0.59375 l -5.09375,-29.75 z m 174.21875,427.500002 12.75,8.21875 -4.9375,3.28125 0,4.125 14.78125,12.75 c 0,0 1.2596,-4.1056 0.4375,4.9375 -0.81504,8.96542 -5.2589,23.56559 -6.9375,39.4375 -1.02705,-0.85064 -2.08913,-1.68852 -2.9375,-2.21875 -2.32525,-1.45328 -39.53125,-2.625 -39.53125,-2.625 l -17.4375,3.5 0,-33.71875 c 0,0 -3.56094,0.37189 -6.9375,0.71875 l 5.9375,-1 c 0,0 7.81975,0.0144 9.875,-1.21875 2.05525,-1.23315 7.40625,-10.6875 7.40625,-10.6875 l 28.75,-4.125 -1.21875,-21.375 z"
       id="path3193"
       inkscape:connector-curvature="0" />
    <path
       inkscape:connector-curvature="0"
       d="m 369.11007,242.70293 c -61.61915,-38.94796 -30.72809,-19.3642 -59.87521,-17.43939 -61.61915,4.0692 -22.6712,16.27676 -22.6712,16.27676 z"
       id="path3225"
       style="fill:none;stroke:none" />
    <g
       id="g3233"
       transform="translate(-212.12538,-59.207567)" />
  </g>
</svg>
